<svg xmlns="http://www.w3.org/2000/svg" xmlns:xlink="http://www.w3.org/1999/xlink" width="500" zoomAndPan="magnify" viewBox="0 0 375 374.999991" height="500" preserveAspectRatio="xMidYMid meet" version="1.0"><defs><g/><clipPath id="id1"><path d="M 129 111.292969 L 246.535156 111.292969 L 246.535156 189.292969 L 129 189.292969 Z M 129 111.292969 " clip-rule="nonzero"/></clipPath><clipPath id="id2"><path d="M 144.875 127.722656 L 229.625 127.722656 L 229.625 162.222656 L 144.875 162.222656 Z M 144.875 127.722656 " clip-rule="nonzero"/></clipPath><clipPath id="id3"><path d="M 155 135 L 220.988281 135 L 220.988281 163.613281 L 155 163.613281 Z M 155 135 " clip-rule="nonzero"/></clipPath><clipPath id="id4"><path d="M 154.238281 130 L 188 130 L 188 162 L 154.238281 162 Z M 154.238281 130 " clip-rule="nonzero"/></clipPath><clipPath id="id5"><path d="M 154.238281 130 L 189 130 L 189 162 L 154.238281 162 Z M 154.238281 130 " clip-rule="nonzero"/></clipPath><clipPath id="id6"><path d="M 159 126.113281 L 188 126.113281 L 188 162 L 159 162 Z M 159 126.113281 " clip-rule="nonzero"/></clipPath><clipPath id="id7"><path d="M 159 126.113281 L 189 126.113281 L 189 162 L 159 162 Z M 159 126.113281 " clip-rule="nonzero"/></clipPath><clipPath id="id8"><path d="M 187 130 L 220.988281 130 L 220.988281 162 L 187 162 Z M 187 130 " clip-rule="nonzero"/></clipPath><clipPath id="id9"><path d="M 187 126.113281 L 216 126.113281 L 216 162 L 187 162 Z M 187 126.113281 " clip-rule="nonzero"/></clipPath></defs><g clip-path="url(#id1)"><path fill="#545454" d="M 230.582031 111.292969 L 144.832031 111.292969 C 140.816406 111.292969 137.535156 114.558594 137.535156 118.550781 L 137.535156 175.324219 C 137.261719 175.507812 136.988281 175.6875 136.714844 175.960938 L 130.234375 183.214844 C 129.324219 184.304688 129.050781 185.847656 129.597656 187.117188 C 130.234375 188.476562 131.511719 189.292969 132.972656 189.292969 L 242.441406 189.292969 C 243.902344 189.292969 245.179688 188.476562 245.726562 187.117188 C 246.273438 185.847656 246.089844 184.304688 245.085938 183.214844 L 238.609375 175.960938 C 238.335938 175.6875 238.0625 175.507812 237.789062 175.324219 L 237.789062 118.550781 C 237.878906 114.558594 234.597656 111.292969 230.582031 111.292969 Z M 141.183594 118.550781 C 141.183594 116.554688 142.824219 114.921875 144.832031 114.921875 L 230.582031 114.921875 C 232.589844 114.921875 234.230469 116.554688 234.230469 118.550781 L 234.230469 174.78125 L 141.183594 174.78125 Z M 242.441406 185.664062 L 132.972656 185.664062 L 139.449219 178.410156 L 235.964844 178.410156 Z M 242.441406 185.664062 " fill-opacity="1" fill-rule="nonzero"/></g><path fill="#545454" d="M 226.933594 118.550781 L 148.480469 118.550781 C 146.472656 118.550781 144.832031 120.183594 144.832031 122.175781 L 144.832031 167.527344 C 144.832031 169.519531 146.472656 171.152344 148.480469 171.152344 L 226.933594 171.152344 C 228.941406 171.152344 230.582031 169.519531 230.582031 167.527344 L 230.582031 122.175781 C 230.582031 120.183594 228.941406 118.550781 226.933594 118.550781 Z M 178.675781 141.042969 L 183.875 135.871094 C 184.605469 135.148438 185.699219 135.148438 186.429688 135.871094 C 187.160156 136.597656 187.160156 137.6875 186.429688 138.410156 L 181.230469 143.582031 C 180.867188 143.945312 180.410156 144.125 179.953125 144.125 C 179.496094 144.125 179.042969 143.945312 178.675781 143.582031 C 177.945312 142.855469 177.945312 141.675781 178.675781 141.042969 Z M 181.230469 153.105469 C 180.773438 153.105469 180.316406 152.921875 179.953125 152.5625 C 179.222656 151.835938 179.222656 150.746094 179.953125 150.019531 L 192.816406 137.234375 C 193.546875 136.507812 194.640625 136.507812 195.371094 137.234375 C 196.101562 137.957031 196.101562 139.046875 195.371094 139.773438 L 182.507812 152.5625 C 182.234375 152.921875 181.6875 153.105469 181.230469 153.105469 Z M 196.738281 148.660156 L 191.539062 153.832031 C 191.175781 154.195312 190.71875 154.375 190.261719 154.375 C 189.804688 154.375 189.347656 154.195312 188.984375 153.832031 C 188.253906 153.105469 188.253906 152.015625 188.984375 151.292969 L 194.183594 146.121094 C 194.914062 145.394531 196.007812 145.394531 196.738281 146.121094 C 197.46875 146.847656 197.46875 148.027344 196.738281 148.660156 Z M 196.738281 148.660156 " fill-opacity="1" fill-rule="nonzero"/><g clip-path="url(#id2)"><path fill="#545454" d="M 144.886719 127.722656 L 229.617188 127.722656 L 229.617188 162.222656 L 144.886719 162.222656 L 144.886719 127.722656 " fill-opacity="1" fill-rule="nonzero"/></g><path fill="#eeeeee" d="M 218.71875 161.332031 L 216.074219 137.203125 L 188.601562 137.203125 L 188.601562 137.042969 L 186.652344 137.042969 L 186.652344 137.203125 L 159.183594 137.203125 L 156.539062 161.332031 L 186.652344 161.332031 L 186.652344 161.199219 C 186.652344 161.734375 187.089844 162.167969 187.628906 162.167969 C 188.164062 162.167969 188.601562 161.734375 188.601562 161.199219 L 188.601562 161.332031 L 218.71875 161.332031 " fill-opacity="1" fill-rule="nonzero"/><g clip-path="url(#id3)"><path fill="#545454" d="M 186.652344 159.769531 C 187.03125 159.769531 187.371094 159.910156 187.628906 160.148438 C 187.882812 159.910156 188.226562 159.769531 188.601562 159.769531 C 188.820312 159.769531 189.023438 159.816406 189.207031 159.902344 L 217.117188 159.902344 L 214.785156 138.632812 L 188.601562 138.632812 C 188.363281 138.632812 188.136719 138.574219 187.941406 138.472656 L 187.316406 138.472656 C 187.117188 138.574219 186.894531 138.632812 186.652344 138.632812 L 160.472656 138.632812 L 158.140625 159.902344 L 186.050781 159.902344 C 186.234375 159.816406 186.4375 159.769531 186.652344 159.769531 Z M 187.628906 163.601562 C 186.898438 163.601562 186.242188 163.273438 185.800781 162.761719 L 156.539062 162.761719 C 156.128906 162.761719 155.742188 162.589844 155.46875 162.285156 C 155.195312 161.984375 155.066406 161.582031 155.113281 161.175781 L 157.757812 137.046875 C 157.835938 136.320312 158.453125 135.773438 159.183594 135.773438 L 185.992188 135.773438 C 186.191406 135.667969 186.414062 135.609375 186.652344 135.609375 L 188.601562 135.609375 C 188.839844 135.609375 189.066406 135.667969 189.265625 135.773438 L 216.074219 135.773438 C 216.804688 135.773438 217.421875 136.320312 217.5 137.046875 L 220.144531 161.175781 C 220.1875 161.582031 220.058594 161.984375 219.785156 162.285156 C 219.515625 162.589844 219.125 162.761719 218.71875 162.761719 L 189.457031 162.761719 C 189.011719 163.273438 188.359375 163.601562 187.628906 163.601562 " fill-opacity="1" fill-rule="nonzero"/></g><path fill="#eeeeee" d="M 187.605469 137.121094 C 187.605469 137.121094 181.175781 128.933594 173.1875 133.785156 C 165.203125 138.640625 158.613281 135.144531 158.613281 135.144531 L 155.96875 159.28125 C 155.96875 159.28125 165.203125 162.777344 173.1875 157.921875 C 181.175781 153.070312 187.605469 161.257812 187.605469 161.257812 L 187.605469 137.121094 " fill-opacity="1" fill-rule="nonzero"/><path fill="#545454" d="M 178.363281 155.957031 C 182.546875 155.957031 185.765625 158.691406 187.171875 160.132812 L 187.171875 137.277344 C 186.570312 136.566406 183.050781 132.679688 178.363281 132.679688 C 176.6875 132.679688 175.023438 133.175781 173.414062 134.152344 C 170.53125 135.90625 167.507812 136.792969 164.429688 136.792969 C 161.824219 136.792969 159.882812 136.152344 158.976562 135.78125 L 156.433594 158.988281 C 157.332031 159.28125 160.070312 160.070312 163.460938 160.070312 C 167.023438 160.070312 170.21875 159.222656 172.964844 157.554688 C 174.710938 156.496094 176.527344 155.957031 178.363281 155.957031 Z M 187.605469 161.6875 C 187.472656 161.6875 187.347656 161.628906 187.265625 161.523438 C 187.226562 161.476562 183.5 156.816406 178.363281 156.816406 C 176.6875 156.816406 175.023438 157.3125 173.414062 158.289062 C 170.53125 160.039062 167.183594 160.929688 163.460938 160.929688 C 159.152344 160.929688 155.949219 159.734375 155.8125 159.683594 C 155.628906 159.613281 155.515625 159.429688 155.539062 159.234375 L 158.183594 135.097656 C 158.199219 134.957031 158.285156 134.832031 158.410156 134.765625 C 158.535156 134.699219 158.6875 134.699219 158.8125 134.765625 C 158.835938 134.777344 161.066406 135.933594 164.429688 135.933594 C 167.347656 135.933594 170.21875 135.089844 172.964844 133.421875 C 174.710938 132.359375 176.527344 131.820312 178.363281 131.820312 C 183.925781 131.820312 187.78125 136.652344 187.945312 136.859375 C 188.003906 136.933594 188.035156 137.027344 188.035156 137.121094 L 188.035156 161.257812 C 188.035156 161.441406 187.917969 161.605469 187.746094 161.664062 C 187.699219 161.679688 187.652344 161.6875 187.605469 161.6875 " fill-opacity="1" fill-rule="nonzero"/><g clip-path="url(#id4)"><path fill="#eeeeee" d="M 187.605469 137.363281 C 187.605469 137.363281 183.777344 128.039062 173.648438 131.144531 C 163.519531 134.25 164.339844 133.769531 157.328125 131.050781 L 154.683594 154.945312 C 161.695312 157.664062 163.519531 158.144531 173.648438 155.039062 C 183.777344 151.933594 187.605469 161.257812 187.605469 161.257812 L 187.605469 137.363281 " fill-opacity="1" fill-rule="nonzero"/></g><g clip-path="url(#id5)"><path fill="#545454" d="M 177.609375 153.976562 C 182.824219 153.976562 185.839844 157.484375 187.171875 159.578125 L 187.171875 137.453125 C 186.847656 136.730469 184.019531 130.9375 177.609375 130.9375 C 176.394531 130.9375 175.105469 131.144531 173.777344 131.554688 C 168.765625 133.089844 166.53125 133.714844 164.605469 133.714844 C 162.847656 133.714844 161.507812 133.179688 159.078125 132.207031 C 158.652344 132.039062 158.195312 131.855469 157.691406 131.65625 L 155.144531 154.667969 C 158.597656 156 160.738281 156.753906 163.378906 156.753906 C 165.722656 156.753906 168.472656 156.175781 173.523438 154.628906 C 174.933594 154.195312 176.308594 153.976562 177.609375 153.976562 Z M 187.605469 161.6875 C 187.433594 161.6875 187.273438 161.585938 187.207031 161.421875 C 187.179688 161.355469 184.410156 154.835938 177.609375 154.835938 C 176.394531 154.835938 175.105469 155.039062 173.777344 155.449219 C 168.632812 157.023438 165.816406 157.609375 163.378906 157.609375 C 160.515625 157.609375 158.148438 156.75 154.523438 155.347656 C 154.34375 155.277344 154.230469 155.09375 154.253906 154.898438 L 156.898438 131.003906 C 156.914062 130.871094 156.988281 130.753906 157.105469 130.683594 C 157.21875 130.617188 157.359375 130.605469 157.484375 130.652344 C 158.195312 130.929688 158.828125 131.183594 159.398438 131.410156 C 161.730469 132.34375 163.011719 132.859375 164.605469 132.859375 C 166.40625 132.859375 168.707031 132.210938 173.523438 130.734375 C 174.933594 130.300781 176.308594 130.082031 177.609375 130.082031 C 184.996094 130.082031 187.972656 137.128906 188.003906 137.203125 C 188.023438 137.253906 188.035156 137.308594 188.035156 137.363281 L 188.035156 161.257812 C 188.035156 161.464844 187.890625 161.640625 187.6875 161.679688 C 187.660156 161.683594 187.632812 161.6875 187.605469 161.6875 " fill-opacity="1" fill-rule="nonzero"/></g><g clip-path="url(#id6)"><path fill="#eeeeee" d="M 175.214844 126.957031 C 167.566406 127.800781 170.15625 129.96875 162.339844 127.089844 L 159.691406 151.140625 C 167.511719 154.019531 167.566406 151.855469 175.214844 151.007812 C 182.867188 150.160156 187.605469 161.257812 187.605469 161.257812 L 187.605469 137.207031 C 187.605469 137.207031 182.867188 126.109375 175.214844 126.957031 " fill-opacity="1" fill-rule="nonzero"/></g><g clip-path="url(#id7)"><path fill="#545454" d="M 176.046875 150.53125 C 181.660156 150.53125 185.558594 156.425781 187.171875 159.410156 L 187.171875 137.296875 C 186.75 136.359375 182.515625 127.339844 176.046875 127.339844 C 175.789062 127.339844 175.523438 127.351562 175.261719 127.382812 C 172.582031 127.679688 171.171875 128.144531 170.140625 128.484375 C 169.324219 128.753906 168.675781 128.964844 167.816406 128.964844 C 166.703125 128.964844 165.289062 128.613281 162.707031 127.679688 L 160.160156 150.851562 C 162.691406 151.765625 164.453125 152.15625 166.003906 152.15625 C 167.261719 152.15625 168.339844 151.902344 169.707031 151.574219 C 171.0625 151.25 172.753906 150.847656 175.167969 150.582031 C 175.460938 150.546875 175.757812 150.53125 176.046875 150.53125 Z M 187.605469 161.6875 C 187.433594 161.6875 187.277344 161.589844 187.207031 161.425781 C 187.164062 161.328125 182.835938 151.390625 176.046875 151.390625 C 175.789062 151.390625 175.523438 151.40625 175.261719 151.433594 C 172.902344 151.695312 171.242188 152.089844 169.90625 152.410156 C 168.484375 152.75 167.363281 153.015625 166.003906 153.015625 C 164.28125 153.015625 162.347656 152.574219 159.542969 151.542969 C 159.359375 151.476562 159.242188 151.289062 159.265625 151.09375 L 161.910156 127.042969 C 161.925781 126.910156 162 126.792969 162.113281 126.722656 C 162.222656 126.652344 162.363281 126.640625 162.488281 126.683594 C 165.261719 127.707031 166.757812 128.105469 167.816406 128.105469 C 168.539062 128.105469 169.097656 127.921875 169.871094 127.667969 C 170.9375 127.316406 172.398438 126.835938 175.167969 126.527344 C 175.460938 126.496094 175.757812 126.480469 176.046875 126.480469 C 183.40625 126.480469 187.816406 136.605469 188 137.039062 C 188.023438 137.09375 188.035156 137.148438 188.035156 137.207031 L 188.035156 161.257812 C 188.035156 161.460938 187.890625 161.636719 187.691406 161.679688 C 187.660156 161.683594 187.632812 161.6875 187.605469 161.6875 " fill-opacity="1" fill-rule="nonzero"/></g><path fill="#eeeeee" d="M 187.605469 137.121094 C 187.605469 137.121094 194.03125 128.933594 202.019531 133.785156 C 210.007812 138.640625 216.597656 135.144531 216.597656 135.144531 L 219.242188 159.28125 C 219.242188 159.28125 210.007812 162.777344 202.019531 157.921875 C 194.03125 153.070312 187.605469 161.257812 187.605469 161.257812 L 187.605469 137.121094 " fill-opacity="1" fill-rule="nonzero"/><path fill="#545454" d="M 188.035156 137.277344 L 188.035156 160.132812 C 189.441406 158.691406 192.660156 155.957031 196.84375 155.957031 C 198.679688 155.957031 200.496094 156.496094 202.246094 157.554688 C 204.988281 159.226562 208.1875 160.070312 211.746094 160.070312 C 215.144531 160.070312 217.878906 159.28125 218.777344 158.988281 L 216.234375 135.78125 C 215.324219 136.152344 213.382812 136.792969 210.777344 136.792969 C 207.699219 136.792969 204.675781 135.90625 201.796875 134.152344 C 200.1875 133.175781 198.519531 132.679688 196.84375 132.679688 C 192.15625 132.679688 188.640625 136.566406 188.035156 137.277344 Z M 187.605469 161.6875 C 187.558594 161.6875 187.507812 161.679688 187.464844 161.664062 C 187.289062 161.605469 187.171875 161.441406 187.171875 161.257812 L 187.171875 137.121094 C 187.171875 137.027344 187.207031 136.933594 187.265625 136.859375 C 187.425781 136.652344 191.285156 131.820312 196.84375 131.820312 C 198.679688 131.820312 200.496094 132.359375 202.246094 133.421875 C 204.988281 135.089844 207.859375 135.933594 210.777344 135.933594 C 214.15625 135.933594 216.371094 134.777344 216.394531 134.765625 C 216.519531 134.699219 216.671875 134.699219 216.796875 134.765625 C 216.925781 134.832031 217.011719 134.957031 217.023438 135.097656 L 219.671875 159.234375 C 219.691406 159.429688 219.578125 159.613281 219.394531 159.683594 C 219.261719 159.734375 216.054688 160.929688 211.746094 160.929688 C 208.027344 160.929688 204.675781 160.039062 201.796875 158.289062 C 200.1875 157.3125 198.519531 156.816406 196.84375 156.816406 C 191.699219 156.816406 187.980469 161.476562 187.945312 161.523438 C 187.859375 161.628906 187.734375 161.6875 187.605469 161.6875 " fill-opacity="1" fill-rule="nonzero"/><g clip-path="url(#id8)"><path fill="#eeeeee" d="M 187.605469 137.363281 C 187.605469 137.363281 191.429688 128.039062 201.558594 131.144531 C 211.6875 134.25 210.867188 133.769531 217.882812 131.050781 L 220.527344 154.945312 C 213.515625 157.664062 211.6875 158.144531 201.558594 155.039062 C 191.429688 151.933594 187.605469 161.257812 187.605469 161.257812 L 187.605469 137.363281 " fill-opacity="1" fill-rule="nonzero"/><path fill="#545454" d="M 188.035156 137.453125 L 188.035156 159.578125 C 189.371094 157.484375 192.386719 153.976562 197.601562 153.976562 C 198.898438 153.976562 200.273438 154.195312 201.6875 154.628906 C 206.738281 156.175781 209.488281 156.753906 211.828125 156.753906 C 214.46875 156.753906 216.609375 156 220.0625 154.667969 L 217.515625 131.65625 C 217.015625 131.851562 216.554688 132.035156 216.128906 132.207031 C 213.699219 133.179688 212.363281 133.714844 210.605469 133.714844 C 208.675781 133.714844 206.445312 133.089844 201.433594 131.554688 C 200.105469 131.144531 198.8125 130.9375 197.601562 130.9375 C 191.175781 130.9375 188.359375 136.730469 188.035156 137.453125 Z M 187.605469 161.6875 C 187.578125 161.6875 187.550781 161.683594 187.519531 161.679688 C 187.320312 161.640625 187.171875 161.464844 187.171875 161.257812 L 187.171875 137.363281 C 187.171875 137.308594 187.183594 137.253906 187.207031 137.203125 C 187.234375 137.128906 190.210938 130.082031 197.601562 130.082031 C 198.898438 130.082031 200.273438 130.300781 201.6875 130.734375 C 206.503906 132.210938 208.804688 132.859375 210.605469 132.859375 C 212.195312 132.859375 213.480469 132.34375 215.808594 131.410156 C 216.378906 131.183594 217.011719 130.929688 217.726562 130.652344 C 217.851562 130.605469 217.992188 130.617188 218.105469 130.683594 C 218.21875 130.753906 218.296875 130.871094 218.3125 131.003906 L 220.953125 154.898438 C 220.976562 155.09375 220.863281 155.277344 220.683594 155.347656 C 217.058594 156.75 214.695312 157.609375 211.828125 157.609375 C 209.390625 157.609375 206.574219 157.023438 201.433594 155.449219 C 200.105469 155.039062 198.8125 154.835938 197.601562 154.835938 C 190.78125 154.835938 188.03125 161.355469 188.003906 161.421875 C 187.9375 161.585938 187.777344 161.6875 187.605469 161.6875 " fill-opacity="1" fill-rule="nonzero"/></g><g clip-path="url(#id9)"><path fill="#eeeeee" d="M 199.992188 126.957031 C 207.640625 127.800781 205.050781 129.96875 212.871094 127.089844 L 215.515625 151.140625 C 207.695312 154.019531 207.640625 151.855469 199.992188 151.007812 C 192.34375 150.160156 187.605469 161.257812 187.605469 161.257812 L 187.605469 137.207031 C 187.605469 137.207031 192.34375 126.109375 199.992188 126.957031 " fill-opacity="1" fill-rule="nonzero"/><path fill="#545454" d="M 188.035156 137.296875 L 188.035156 159.410156 C 189.648438 156.425781 193.546875 150.53125 199.160156 150.53125 C 199.453125 150.53125 199.75 150.546875 200.039062 150.582031 C 202.453125 150.847656 204.144531 151.25 205.503906 151.574219 C 206.867188 151.902344 207.949219 152.15625 209.207031 152.15625 C 210.757812 152.15625 212.519531 151.765625 215.050781 150.851562 L 212.5 127.679688 C 209.917969 128.613281 208.503906 128.964844 207.390625 128.964844 C 206.53125 128.964844 205.886719 128.753906 205.066406 128.484375 C 204.039062 128.144531 202.625 127.679688 199.945312 127.382812 C 199.683594 127.351562 199.421875 127.339844 199.160156 127.339844 C 192.691406 127.339844 188.457031 136.359375 188.035156 137.296875 Z M 187.605469 161.6875 C 187.574219 161.6875 187.546875 161.683594 187.519531 161.679688 C 187.316406 161.636719 187.171875 161.460938 187.171875 161.257812 L 187.171875 137.207031 C 187.171875 137.148438 187.183594 137.09375 187.207031 137.039062 C 187.390625 136.605469 191.800781 126.480469 199.160156 126.480469 C 199.453125 126.480469 199.75 126.496094 200.039062 126.527344 C 202.808594 126.835938 204.273438 127.316406 205.339844 127.667969 C 206.113281 127.921875 206.671875 128.105469 207.390625 128.105469 C 208.453125 128.105469 209.945312 127.707031 212.722656 126.683594 C 212.84375 126.640625 212.984375 126.652344 213.097656 126.722656 C 213.210938 126.792969 213.285156 126.910156 213.296875 127.042969 L 215.945312 151.09375 C 215.964844 151.289062 215.851562 151.476562 215.664062 151.542969 C 212.859375 152.574219 210.929688 153.015625 209.207031 153.015625 C 207.847656 153.015625 206.722656 152.75 205.300781 152.410156 C 203.96875 152.089844 202.304688 151.695312 199.945312 151.433594 C 199.683594 151.40625 199.421875 151.390625 199.160156 151.390625 C 192.371094 151.390625 188.042969 161.328125 188 161.425781 C 187.933594 161.589844 187.773438 161.6875 187.605469 161.6875 " fill-opacity="1" fill-rule="nonzero"/></g><g fill="#333333" fill-opacity="1"><g transform="translate(93.86883, 233.499741)"><g><path d="M 3.265625 -1.59375 C 4.421875 -1.769531 5.210938 -2.113281 5.640625 -2.625 C 6.066406 -3.144531 6.28125 -4.039062 6.28125 -5.3125 L 6.328125 -23.890625 C 6.328125 -24.828125 6.210938 -25.457031 5.984375 -25.78125 C 5.765625 -26.113281 5.332031 -26.28125 4.6875 -26.28125 C 4.394531 -26.28125 4.097656 -26.265625 3.796875 -26.234375 C 3.503906 -26.203125 3.300781 -26.1875 3.1875 -26.1875 L 3.09375 -26.359375 L 3.40625 -28.3125 C 3.757812 -28.28125 4.421875 -28.25 5.390625 -28.21875 C 6.367188 -28.1875 7.359375 -28.171875 8.359375 -28.171875 C 9.148438 -28.171875 10.054688 -28.222656 11.078125 -28.328125 C 12.097656 -28.429688 12.769531 -28.515625 13.09375 -28.578125 L 12.921875 -26.578125 C 11.941406 -26.460938 11.265625 -26.269531 10.890625 -26 C 10.523438 -25.738281 10.304688 -25.429688 10.234375 -25.078125 C 10.160156 -24.722656 10.082031 -23.851562 10 -22.46875 C 9.820312 -19.96875 9.6875 -17.109375 9.59375 -13.890625 C 9.507812 -10.671875 9.46875 -7.835938 9.46875 -5.390625 C 9.46875 -4.328125 9.554688 -3.566406 9.734375 -3.109375 C 9.910156 -2.660156 10.238281 -2.359375 10.71875 -2.203125 C 11.207031 -2.054688 12.039062 -1.984375 13.21875 -1.984375 C 15.019531 -1.984375 16.34375 -2.128906 17.1875 -2.421875 C 18.03125 -2.722656 18.664062 -3.300781 19.09375 -4.15625 C 19.519531 -5.007812 19.910156 -6.378906 20.265625 -8.265625 L 22.203125 -8.5 L 22.34375 -8.265625 C 22.25 -7.796875 22.0625 -6.734375 21.78125 -5.078125 C 21.5 -3.429688 21.257812 -1.695312 21.0625 0.125 L 20.828125 0.390625 C 19.972656 0.335938 18.210938 0.257812 15.546875 0.15625 C 12.878906 0.0507812 10.675781 0 8.9375 0 C 7.550781 0 6.289062 0.0546875 5.15625 0.171875 C 4.019531 0.296875 3.304688 0.382812 3.015625 0.4375 Z M 3.265625 -1.59375 "/></g></g></g><g fill="#333333" fill-opacity="1"><g transform="translate(116.291707, 233.499741)"><g><path d="M 2.609375 -1.5 C 3.703125 -1.625 4.4375 -1.890625 4.8125 -2.296875 C 5.195312 -2.710938 5.390625 -3.421875 5.390625 -4.421875 L 5.4375 -18.453125 C 5.4375 -19.179688 5.347656 -19.671875 5.171875 -19.921875 C 4.992188 -20.171875 4.640625 -20.296875 4.109375 -20.296875 L 2.921875 -20.265625 L 2.828125 -20.4375 L 3.09375 -22.109375 C 3.445312 -22.109375 4.140625 -22.09375 5.171875 -22.0625 C 6.203125 -22.039062 7.320312 -22.03125 8.53125 -22.03125 C 13.457031 -22.03125 17.101562 -22.160156 19.46875 -22.421875 L 19.59375 -22.203125 C 19.53125 -21.878906 19.394531 -21.140625 19.1875 -19.984375 C 18.988281 -18.835938 18.84375 -17.601562 18.75 -16.28125 L 16.625 -16.09375 C 16.625 -16.21875 16.640625 -16.421875 16.671875 -16.703125 C 16.703125 -16.984375 16.71875 -17.269531 16.71875 -17.5625 C 16.71875 -18.332031 16.609375 -18.867188 16.390625 -19.171875 C 16.171875 -19.484375 15.710938 -19.691406 15.015625 -19.796875 C 14.328125 -19.898438 13.125 -19.953125 11.40625 -19.953125 C 10.613281 -19.953125 10.066406 -19.925781 9.765625 -19.875 C 9.472656 -19.832031 9.28125 -19.726562 9.1875 -19.5625 C 9.101562 -19.40625 9.050781 -19.109375 9.03125 -18.671875 L 8.765625 -12.390625 L 12.390625 -12.34375 C 12.921875 -12.34375 13.703125 -12.394531 14.734375 -12.5 C 15.765625 -12.601562 16.441406 -12.664062 16.765625 -12.6875 L 16.9375 -12.46875 L 16.40625 -10.171875 C 16.082031 -10.171875 15.441406 -10.1875 14.484375 -10.21875 C 13.523438 -10.25 12.515625 -10.265625 11.453125 -10.265625 C 10.628906 -10.265625 9.703125 -10.191406 8.671875 -10.046875 C 8.578125 -7.796875 8.53125 -5.773438 8.53125 -3.984375 C 8.53125 -3.304688 8.582031 -2.832031 8.6875 -2.5625 C 8.789062 -2.300781 9.023438 -2.125 9.390625 -2.03125 C 9.765625 -1.945312 10.378906 -1.90625 11.234375 -1.90625 C 13.148438 -1.90625 14.519531 -1.992188 15.34375 -2.171875 C 16.175781 -2.347656 16.757812 -2.707031 17.09375 -3.25 C 17.4375 -3.789062 17.710938 -4.726562 17.921875 -6.0625 L 19.859375 -6.234375 L 20.03125 -6.015625 C 19.945312 -5.691406 19.789062 -4.929688 19.5625 -3.734375 C 19.34375 -2.546875 19.175781 -1.300781 19.0625 0 L 18.796875 0.21875 C 18.003906 0.1875 16.351562 0.140625 13.84375 0.078125 C 11.332031 0.0234375 9.296875 0 7.734375 0 C 6.523438 0 5.40625 0.0507812 4.375 0.15625 C 3.34375 0.257812 2.679688 0.328125 2.390625 0.359375 Z M 2.609375 -1.5 "/></g></g></g><g fill="#333333" fill-opacity="1"><g transform="translate(138.758815, 233.499741)"><g><path d="M 19.0625 0.53125 C 18.414062 0.53125 17.753906 0.242188 17.078125 -0.328125 C 16.398438 -0.898438 15.78125 -1.691406 15.21875 -2.703125 L 11.5 -9.203125 L 8.625 -9.203125 L 8.53125 -4.46875 C 8.53125 -3.613281 8.585938 -3 8.703125 -2.625 C 8.828125 -2.257812 9.054688 -2.015625 9.390625 -1.890625 C 9.734375 -1.773438 10.316406 -1.707031 11.140625 -1.6875 L 11.234375 -1.546875 L 10.875 0.125 C 10.519531 0.101562 9.878906 0.0820312 8.953125 0.0625 C 8.023438 0.0507812 7.09375 0.046875 6.15625 0.046875 C 5.238281 0.046875 4.441406 0.0546875 3.765625 0.078125 C 3.085938 0.109375 2.628906 0.140625 2.390625 0.171875 L 2.703125 -1.640625 C 3.785156 -1.785156 4.503906 -2.035156 4.859375 -2.390625 C 5.210938 -2.742188 5.390625 -3.40625 5.390625 -4.375 L 5.4375 -18.484375 C 5.4375 -19.191406 5.347656 -19.671875 5.171875 -19.921875 C 4.992188 -20.171875 4.65625 -20.296875 4.15625 -20.296875 L 2.921875 -20.265625 L 2.78125 -20.4375 L 3.046875 -22.109375 C 3.347656 -22.109375 3.910156 -22.09375 4.734375 -22.0625 C 5.554688 -22.039062 6.378906 -22.03125 7.203125 -22.03125 C 8.066406 -22.03125 8.984375 -22.050781 9.953125 -22.09375 C 10.921875 -22.132812 11.582031 -22.15625 11.9375 -22.15625 C 14.332031 -22.15625 16.207031 -21.660156 17.5625 -20.671875 C 18.914062 -19.691406 19.59375 -18.332031 19.59375 -16.59375 C 19.59375 -15.226562 19.132812 -13.972656 18.21875 -12.828125 C 17.3125 -11.679688 16.03125 -10.738281 14.375 -10 L 18.140625 -4.328125 C 18.847656 -3.273438 19.523438 -2.523438 20.171875 -2.078125 C 20.816406 -1.640625 21.597656 -1.421875 22.515625 -1.421875 L 22.6875 -1.1875 L 22.46875 0.171875 Z M 12.296875 -11.140625 C 12.859375 -11.378906 13.351562 -11.609375 13.78125 -11.828125 C 14.207031 -12.054688 14.6875 -12.519531 15.21875 -13.21875 C 15.75 -13.925781 16.015625 -14.84375 16.015625 -15.96875 C 16.015625 -18.832031 13.90625 -20.265625 9.6875 -20.265625 C 9.445312 -20.265625 9.28125 -20.210938 9.1875 -20.109375 C 9.101562 -20.003906 9.0625 -19.789062 9.0625 -19.46875 C 8.832031 -15.863281 8.71875 -13.207031 8.71875 -11.5 Z M 12.296875 -11.140625 "/></g></g></g><g fill="#333333" fill-opacity="1"><g transform="translate(162.15468, 233.499741)"><g><path d="M 20.390625 -18.796875 C 20.390625 -19.773438 19.992188 -20.265625 19.203125 -20.265625 L 17.875 -20.265625 L 17.78125 -20.4375 L 18.09375 -22.15625 C 18.351562 -22.125 18.851562 -22.09375 19.59375 -22.0625 C 20.332031 -22.039062 21.085938 -22.03125 21.859375 -22.03125 C 22.503906 -22.03125 23.226562 -22.066406 24.03125 -22.140625 C 24.84375 -22.210938 25.367188 -22.265625 25.609375 -22.296875 L 25.4375 -20.484375 C 24.582031 -20.359375 23.96875 -20.125 23.59375 -19.78125 C 23.226562 -19.445312 23.03125 -18.941406 23 -18.265625 L 22.46875 0.75 L 20.75 1.234375 C 17.945312 -2.859375 15.113281 -6.863281 12.25 -10.78125 C 9.394531 -14.707031 7.96875 -16.644531 7.96875 -16.59375 L 7.734375 -16.59375 L 7.609375 -3.1875 C 7.609375 -2.625 7.695312 -2.238281 7.875 -2.03125 C 8.050781 -1.820312 8.347656 -1.71875 8.765625 -1.71875 L 10.53125 -1.765625 L 10.65625 -1.640625 L 10.3125 0.125 C 10.039062 0.101562 9.515625 0.078125 8.734375 0.046875 C 7.953125 0.015625 7.132812 0 6.28125 0 C 5.601562 0 4.878906 0.0351562 4.109375 0.109375 C 3.347656 0.179688 2.847656 0.234375 2.609375 0.265625 L 2.828125 -1.546875 C 3.566406 -1.640625 4.113281 -1.851562 4.46875 -2.1875 C 4.820312 -2.53125 5.015625 -3.039062 5.046875 -3.71875 L 5.53125 -18.3125 C 5.53125 -19.050781 5.316406 -19.5625 4.890625 -19.84375 C 4.460938 -20.125 3.644531 -20.335938 2.4375 -20.484375 L 2.25 -20.703125 L 2.5625 -22.203125 C 2.800781 -22.171875 3.25 -22.132812 3.90625 -22.09375 C 4.570312 -22.050781 5.242188 -22.03125 5.921875 -22.03125 C 6.578125 -22.03125 7.15625 -22.039062 7.65625 -22.0625 C 8.15625 -22.09375 8.476562 -22.125 8.625 -22.15625 C 11.007812 -18.644531 13.535156 -15.0625 16.203125 -11.40625 C 18.878906 -7.75 20.21875 -5.953125 20.21875 -6.015625 L 20.4375 -6.015625 Z M 20.390625 -18.796875 "/></g></g></g><g fill="#333333" fill-opacity="1"><g transform="translate(189.309803, 233.499741)"><g><path d="M 2.609375 -1.5 C 3.703125 -1.625 4.4375 -1.890625 4.8125 -2.296875 C 5.195312 -2.710938 5.390625 -3.421875 5.390625 -4.421875 L 5.4375 -18.453125 C 5.4375 -19.179688 5.347656 -19.671875 5.171875 -19.921875 C 4.992188 -20.171875 4.640625 -20.296875 4.109375 -20.296875 L 2.921875 -20.265625 L 2.828125 -20.4375 L 3.09375 -22.109375 C 3.445312 -22.109375 4.140625 -22.09375 5.171875 -22.0625 C 6.203125 -22.039062 7.320312 -22.03125 8.53125 -22.03125 C 13.457031 -22.03125 17.101562 -22.160156 19.46875 -22.421875 L 19.59375 -22.203125 C 19.53125 -21.878906 19.394531 -21.140625 19.1875 -19.984375 C 18.988281 -18.835938 18.84375 -17.601562 18.75 -16.28125 L 16.625 -16.09375 C 16.625 -16.21875 16.640625 -16.421875 16.671875 -16.703125 C 16.703125 -16.984375 16.71875 -17.269531 16.71875 -17.5625 C 16.71875 -18.332031 16.609375 -18.867188 16.390625 -19.171875 C 16.171875 -19.484375 15.710938 -19.691406 15.015625 -19.796875 C 14.328125 -19.898438 13.125 -19.953125 11.40625 -19.953125 C 10.613281 -19.953125 10.066406 -19.925781 9.765625 -19.875 C 9.472656 -19.832031 9.28125 -19.726562 9.1875 -19.5625 C 9.101562 -19.40625 9.050781 -19.109375 9.03125 -18.671875 L 8.765625 -12.390625 L 12.390625 -12.34375 C 12.921875 -12.34375 13.703125 -12.394531 14.734375 -12.5 C 15.765625 -12.601562 16.441406 -12.664062 16.765625 -12.6875 L 16.9375 -12.46875 L 16.40625 -10.171875 C 16.082031 -10.171875 15.441406 -10.1875 14.484375 -10.21875 C 13.523438 -10.25 12.515625 -10.265625 11.453125 -10.265625 C 10.628906 -10.265625 9.703125 -10.191406 8.671875 -10.046875 C 8.578125 -7.796875 8.53125 -5.773438 8.53125 -3.984375 C 8.53125 -3.304688 8.582031 -2.832031 8.6875 -2.5625 C 8.789062 -2.300781 9.023438 -2.125 9.390625 -2.03125 C 9.765625 -1.945312 10.378906 -1.90625 11.234375 -1.90625 C 13.148438 -1.90625 14.519531 -1.992188 15.34375 -2.171875 C 16.175781 -2.347656 16.757812 -2.707031 17.09375 -3.25 C 17.4375 -3.789062 17.710938 -4.726562 17.921875 -6.0625 L 19.859375 -6.234375 L 20.03125 -6.015625 C 19.945312 -5.691406 19.789062 -4.929688 19.5625 -3.734375 C 19.34375 -2.546875 19.175781 -1.300781 19.0625 0 L 18.796875 0.21875 C 18.003906 0.1875 16.351562 0.140625 13.84375 0.078125 C 11.332031 0.0234375 9.296875 0 7.734375 0 C 6.523438 0 5.40625 0.0507812 4.375 0.15625 C 3.34375 0.257812 2.679688 0.328125 2.390625 0.359375 Z M 2.609375 -1.5 "/></g></g></g><g fill="#333333" fill-opacity="1"><g transform="translate(211.776911, 233.499741)"><g><path d="M 19.0625 0.53125 C 18.414062 0.53125 17.753906 0.242188 17.078125 -0.328125 C 16.398438 -0.898438 15.78125 -1.691406 15.21875 -2.703125 L 11.5 -9.203125 L 8.625 -9.203125 L 8.53125 -4.46875 C 8.53125 -3.613281 8.585938 -3 8.703125 -2.625 C 8.828125 -2.257812 9.054688 -2.015625 9.390625 -1.890625 C 9.734375 -1.773438 10.316406 -1.707031 11.140625 -1.6875 L 11.234375 -1.546875 L 10.875 0.125 C 10.519531 0.101562 9.878906 0.0820312 8.953125 0.0625 C 8.023438 0.0507812 7.09375 0.046875 6.15625 0.046875 C 5.238281 0.046875 4.441406 0.0546875 3.765625 0.078125 C 3.085938 0.109375 2.628906 0.140625 2.390625 0.171875 L 2.703125 -1.640625 C 3.785156 -1.785156 4.503906 -2.035156 4.859375 -2.390625 C 5.210938 -2.742188 5.390625 -3.40625 5.390625 -4.375 L 5.4375 -18.484375 C 5.4375 -19.191406 5.347656 -19.671875 5.171875 -19.921875 C 4.992188 -20.171875 4.65625 -20.296875 4.15625 -20.296875 L 2.921875 -20.265625 L 2.78125 -20.4375 L 3.046875 -22.109375 C 3.347656 -22.109375 3.910156 -22.09375 4.734375 -22.0625 C 5.554688 -22.039062 6.378906 -22.03125 7.203125 -22.03125 C 8.066406 -22.03125 8.984375 -22.050781 9.953125 -22.09375 C 10.921875 -22.132812 11.582031 -22.15625 11.9375 -22.15625 C 14.332031 -22.15625 16.207031 -21.660156 17.5625 -20.671875 C 18.914062 -19.691406 19.59375 -18.332031 19.59375 -16.59375 C 19.59375 -15.226562 19.132812 -13.972656 18.21875 -12.828125 C 17.3125 -11.679688 16.03125 -10.738281 14.375 -10 L 18.140625 -4.328125 C 18.847656 -3.273438 19.523438 -2.523438 20.171875 -2.078125 C 20.816406 -1.640625 21.597656 -1.421875 22.515625 -1.421875 L 22.6875 -1.1875 L 22.46875 0.171875 Z M 12.296875 -11.140625 C 12.859375 -11.378906 13.351562 -11.609375 13.78125 -11.828125 C 14.207031 -12.054688 14.6875 -12.519531 15.21875 -13.21875 C 15.75 -13.925781 16.015625 -14.84375 16.015625 -15.96875 C 16.015625 -18.832031 13.90625 -20.265625 9.6875 -20.265625 C 9.445312 -20.265625 9.28125 -20.210938 9.1875 -20.109375 C 9.101562 -20.003906 9.0625 -19.789062 9.0625 -19.46875 C 8.832031 -15.863281 8.71875 -13.207031 8.71875 -11.5 Z M 12.296875 -11.140625 "/></g></g></g><g fill="#333333" fill-opacity="1"><g transform="translate(235.172776, 233.499741)"><g><path d="M 19.0625 0.53125 C 18.414062 0.53125 17.753906 0.242188 17.078125 -0.328125 C 16.398438 -0.898438 15.78125 -1.691406 15.21875 -2.703125 L 11.5 -9.203125 L 8.625 -9.203125 L 8.53125 -4.46875 C 8.53125 -3.613281 8.585938 -3 8.703125 -2.625 C 8.828125 -2.257812 9.054688 -2.015625 9.390625 -1.890625 C 9.734375 -1.773438 10.316406 -1.707031 11.140625 -1.6875 L 11.234375 -1.546875 L 10.875 0.125 C 10.519531 0.101562 9.878906 0.0820312 8.953125 0.0625 C 8.023438 0.0507812 7.09375 0.046875 6.15625 0.046875 C 5.238281 0.046875 4.441406 0.0546875 3.765625 0.078125 C 3.085938 0.109375 2.628906 0.140625 2.390625 0.171875 L 2.703125 -1.640625 C 3.785156 -1.785156 4.503906 -2.035156 4.859375 -2.390625 C 5.210938 -2.742188 5.390625 -3.40625 5.390625 -4.375 L 5.4375 -18.484375 C 5.4375 -19.191406 5.347656 -19.671875 5.171875 -19.921875 C 4.992188 -20.171875 4.65625 -20.296875 4.15625 -20.296875 L 2.921875 -20.265625 L 2.78125 -20.4375 L 3.046875 -22.109375 C 3.347656 -22.109375 3.910156 -22.09375 4.734375 -22.0625 C 5.554688 -22.039062 6.378906 -22.03125 7.203125 -22.03125 C 8.066406 -22.03125 8.984375 -22.050781 9.953125 -22.09375 C 10.921875 -22.132812 11.582031 -22.15625 11.9375 -22.15625 C 14.332031 -22.15625 16.207031 -21.660156 17.5625 -20.671875 C 18.914062 -19.691406 19.59375 -18.332031 19.59375 -16.59375 C 19.59375 -15.226562 19.132812 -13.972656 18.21875 -12.828125 C 17.3125 -11.679688 16.03125 -10.738281 14.375 -10 L 18.140625 -4.328125 C 18.847656 -3.273438 19.523438 -2.523438 20.171875 -2.078125 C 20.816406 -1.640625 21.597656 -1.421875 22.515625 -1.421875 L 22.6875 -1.1875 L 22.46875 0.171875 Z M 12.296875 -11.140625 C 12.859375 -11.378906 13.351562 -11.609375 13.78125 -11.828125 C 14.207031 -12.054688 14.6875 -12.519531 15.21875 -13.21875 C 15.75 -13.925781 16.015625 -14.84375 16.015625 -15.96875 C 16.015625 -18.832031 13.90625 -20.265625 9.6875 -20.265625 C 9.445312 -20.265625 9.28125 -20.210938 9.1875 -20.109375 C 9.101562 -20.003906 9.0625 -19.789062 9.0625 -19.46875 C 8.832031 -15.863281 8.71875 -13.207031 8.71875 -11.5 Z M 12.296875 -11.140625 "/></g></g></g><g fill="#333333" fill-opacity="1"><g transform="translate(258.568642, 233.499741)"><g><path d="M 12.4375 0.09375 L 12.5625 -1.5 C 13.800781 -1.59375 14.632812 -1.726562 15.0625 -1.90625 C 15.488281 -2.082031 15.703125 -2.375 15.703125 -2.78125 C 15.703125 -3.257812 15.597656 -3.765625 15.390625 -4.296875 L 14.328125 -7.703125 C 13.742188 -7.722656 12.519531 -7.734375 10.65625 -7.734375 C 9.800781 -7.734375 8.535156 -7.644531 6.859375 -7.46875 L 5.625 -4.203125 C 5.414062 -3.523438 5.3125 -3.113281 5.3125 -2.96875 C 5.3125 -2.488281 5.472656 -2.144531 5.796875 -1.9375 C 6.117188 -1.738281 6.648438 -1.640625 7.390625 -1.640625 L 9.296875 -1.640625 L 9.421875 -1.453125 L 9.15625 0.21875 C 8.863281 0.1875 8.191406 0.140625 7.140625 0.078125 C 6.097656 0.0234375 5.070312 0 4.0625 0 C 3.125 0 2.273438 0.015625 1.515625 0.046875 C 0.765625 0.078125 0.257812 0.09375 0 0.09375 L 0.265625 -1.71875 C 0.910156 -1.8125 1.425781 -2.039062 1.8125 -2.40625 C 2.195312 -2.78125 2.582031 -3.410156 2.96875 -4.296875 L 9.90625 -21.859375 L 13.046875 -22.421875 L 13.359375 -22.375 C 13.359375 -22.257812 14.03125 -19.929688 15.375 -15.390625 C 16.71875 -10.847656 17.914062 -7.085938 18.96875 -4.109375 C 19.269531 -3.253906 19.648438 -2.65625 20.109375 -2.3125 C 20.566406 -1.976562 21.296875 -1.769531 22.296875 -1.6875 L 22.375 -1.5 L 22.15625 0.09375 C 21.863281 0.09375 21.316406 0.078125 20.515625 0.046875 C 19.722656 0.015625 18.929688 0 18.140625 0 C 16.929688 0 15.78125 0.0390625 14.6875 0.125 C 13.59375 0.21875 12.882812 0.28125 12.5625 0.3125 Z M 10.578125 -9.546875 C 11.609375 -9.546875 12.679688 -9.609375 13.796875 -9.734375 L 11.109375 -18.3125 L 10.796875 -18.3125 L 7.5625 -9.546875 Z M 10.578125 -9.546875 "/></g></g></g><g fill="#666666" fill-opacity="1"><g transform="translate(133.114296, 259.452581)"><g><path d="M 2 0 C 1.800781 0 1.644531 -0.0546875 1.53125 -0.171875 C 1.414062 -0.285156 1.359375 -0.4375 1.359375 -0.625 L 1.359375 -10.34375 C 1.359375 -10.53125 1.414062 -10.675781 1.53125 -10.78125 C 1.644531 -10.894531 1.800781 -10.953125 2 -10.953125 L 7.8125 -10.953125 C 8 -10.953125 8.144531 -10.90625 8.25 -10.8125 C 8.351562 -10.726562 8.40625 -10.601562 8.40625 -10.4375 C 8.40625 -10.269531 8.351562 -10.140625 8.25 -10.046875 C 8.144531 -9.953125 8 -9.90625 7.8125 -9.90625 L 2.609375 -9.90625 L 2.609375 -6.09375 L 7.515625 -6.09375 C 7.691406 -6.09375 7.832031 -6.046875 7.9375 -5.953125 C 8.039062 -5.859375 8.09375 -5.726562 8.09375 -5.5625 C 8.09375 -5.394531 8.039062 -5.265625 7.9375 -5.171875 C 7.832031 -5.078125 7.691406 -5.03125 7.515625 -5.03125 L 2.609375 -5.03125 L 2.609375 -1.0625 L 7.8125 -1.0625 C 8 -1.0625 8.144531 -1.015625 8.25 -0.921875 C 8.351562 -0.835938 8.40625 -0.707031 8.40625 -0.53125 C 8.40625 -0.363281 8.351562 -0.234375 8.25 -0.140625 C 8.144531 -0.046875 8 0 7.8125 0 Z M 2 0 "/></g></g></g><g fill="#666666" fill-opacity="1"><g transform="translate(143.883722, 259.452581)"><g><path d="M 1.578125 -3.625 C 1.398438 -3.625 1.257812 -3.671875 1.15625 -3.765625 C 1.0625 -3.859375 1.015625 -3.984375 1.015625 -4.140625 C 1.015625 -4.296875 1.0625 -4.421875 1.15625 -4.515625 C 1.257812 -4.609375 1.398438 -4.65625 1.578125 -4.65625 L 5 -4.65625 C 5.195312 -4.65625 5.34375 -4.609375 5.4375 -4.515625 C 5.539062 -4.421875 5.59375 -4.296875 5.59375 -4.140625 C 5.59375 -3.984375 5.539062 -3.859375 5.4375 -3.765625 C 5.34375 -3.671875 5.195312 -3.625 5 -3.625 Z M 1.578125 -3.625 "/></g></g></g><g fill="#666666" fill-opacity="1"><g transform="translate(152.213509, 259.452581)"><g><path d="M 1.96875 0 C 1.789062 0 1.644531 -0.0507812 1.53125 -0.15625 C 1.414062 -0.269531 1.359375 -0.414062 1.359375 -0.59375 L 1.359375 -10.390625 C 1.359375 -10.585938 1.410156 -10.742188 1.515625 -10.859375 C 1.628906 -10.972656 1.785156 -11.03125 1.984375 -11.03125 C 2.179688 -11.03125 2.335938 -10.972656 2.453125 -10.859375 C 2.566406 -10.742188 2.625 -10.585938 2.625 -10.390625 L 2.625 -1.09375 L 7.65625 -1.09375 C 7.832031 -1.09375 7.972656 -1.046875 8.078125 -0.953125 C 8.179688 -0.859375 8.234375 -0.722656 8.234375 -0.546875 C 8.234375 -0.367188 8.179688 -0.234375 8.078125 -0.140625 C 7.972656 -0.046875 7.832031 0 7.65625 0 Z M 1.96875 0 "/></g></g></g><g fill="#666666" fill-opacity="1"><g transform="translate(162.330288, 259.452581)"><g><path d="M 2 0 C 1.800781 0 1.644531 -0.0546875 1.53125 -0.171875 C 1.414062 -0.285156 1.359375 -0.4375 1.359375 -0.625 L 1.359375 -10.34375 C 1.359375 -10.53125 1.414062 -10.675781 1.53125 -10.78125 C 1.644531 -10.894531 1.800781 -10.953125 2 -10.953125 L 7.8125 -10.953125 C 8 -10.953125 8.144531 -10.90625 8.25 -10.8125 C 8.351562 -10.726562 8.40625 -10.601562 8.40625 -10.4375 C 8.40625 -10.269531 8.351562 -10.140625 8.25 -10.046875 C 8.144531 -9.953125 8 -9.90625 7.8125 -9.90625 L 2.609375 -9.90625 L 2.609375 -6.09375 L 7.515625 -6.09375 C 7.691406 -6.09375 7.832031 -6.046875 7.9375 -5.953125 C 8.039062 -5.859375 8.09375 -5.726562 8.09375 -5.5625 C 8.09375 -5.394531 8.039062 -5.265625 7.9375 -5.171875 C 7.832031 -5.078125 7.691406 -5.03125 7.515625 -5.03125 L 2.609375 -5.03125 L 2.609375 -1.0625 L 7.8125 -1.0625 C 8 -1.0625 8.144531 -1.015625 8.25 -0.921875 C 8.351562 -0.835938 8.40625 -0.707031 8.40625 -0.53125 C 8.40625 -0.363281 8.351562 -0.234375 8.25 -0.140625 C 8.144531 -0.046875 8 0 7.8125 0 Z M 2 0 "/></g></g></g><g fill="#666666" fill-opacity="1"><g transform="translate(173.099716, 259.452581)"><g><path d="M 10.796875 -0.734375 C 10.835938 -0.648438 10.859375 -0.5625 10.859375 -0.46875 C 10.859375 -0.3125 10.796875 -0.179688 10.671875 -0.078125 C 10.554688 0.0234375 10.414062 0.078125 10.25 0.078125 C 9.988281 0.078125 9.804688 -0.046875 9.703125 -0.296875 L 8.59375 -2.8125 L 2.734375 -2.8125 L 1.609375 -0.296875 C 1.515625 -0.046875 1.335938 0.078125 1.078125 0.078125 C 0.910156 0.078125 0.765625 0.0234375 0.640625 -0.078125 C 0.515625 -0.191406 0.453125 -0.328125 0.453125 -0.484375 C 0.453125 -0.566406 0.472656 -0.648438 0.515625 -0.734375 L 4.953125 -10.625 C 5.015625 -10.769531 5.109375 -10.875 5.234375 -10.9375 C 5.359375 -11.007812 5.492188 -11.046875 5.640625 -11.046875 C 5.796875 -11.046875 5.9375 -11.007812 6.0625 -10.9375 C 6.1875 -10.863281 6.28125 -10.757812 6.34375 -10.625 Z M 3.203125 -3.875 L 8.125 -3.875 L 5.65625 -9.453125 Z M 3.203125 -3.875 "/></g></g></g><g fill="#666666" fill-opacity="1"><g transform="translate(186.122313, 259.452581)"><g><path d="M 9.71875 -0.796875 C 9.789062 -0.679688 9.828125 -0.5625 9.828125 -0.4375 C 9.828125 -0.28125 9.765625 -0.148438 9.640625 -0.046875 C 9.523438 0.046875 9.390625 0.09375 9.234375 0.09375 C 8.992188 0.09375 8.804688 -0.0078125 8.671875 -0.21875 L 6.59375 -3.515625 C 6.320312 -3.941406 6.039062 -4.234375 5.75 -4.390625 C 5.457031 -4.554688 5.066406 -4.640625 4.578125 -4.640625 L 2.609375 -4.640625 L 2.609375 -0.578125 C 2.609375 -0.378906 2.550781 -0.21875 2.4375 -0.09375 C 2.320312 0.0195312 2.171875 0.078125 1.984375 0.078125 C 1.785156 0.078125 1.628906 0.0195312 1.515625 -0.09375 C 1.410156 -0.21875 1.359375 -0.378906 1.359375 -0.578125 L 1.359375 -10.34375 C 1.359375 -10.53125 1.414062 -10.675781 1.53125 -10.78125 C 1.644531 -10.894531 1.800781 -10.953125 2 -10.953125 L 5.859375 -10.953125 C 7.054688 -10.953125 7.96875 -10.6875 8.59375 -10.15625 C 9.21875 -9.632812 9.53125 -8.859375 9.53125 -7.828125 C 9.53125 -6.960938 9.273438 -6.265625 8.765625 -5.734375 C 8.265625 -5.203125 7.550781 -4.878906 6.625 -4.765625 C 6.882812 -4.691406 7.117188 -4.5625 7.328125 -4.375 C 7.535156 -4.1875 7.738281 -3.925781 7.9375 -3.59375 Z M 5.75 -5.6875 C 6.601562 -5.6875 7.238281 -5.863281 7.65625 -6.21875 C 8.070312 -6.570312 8.28125 -7.101562 8.28125 -7.8125 C 8.28125 -8.519531 8.070312 -9.046875 7.65625 -9.390625 C 7.25 -9.734375 6.613281 -9.90625 5.75 -9.90625 L 2.609375 -9.90625 L 2.609375 -5.6875 Z M 5.75 -5.6875 "/></g></g></g><g fill="#666666" fill-opacity="1"><g transform="translate(198.507806, 259.452581)"><g><path d="M 9.546875 -11.03125 C 9.734375 -11.03125 9.878906 -10.972656 9.984375 -10.859375 C 10.085938 -10.742188 10.140625 -10.585938 10.140625 -10.390625 L 10.140625 -0.578125 C 10.140625 -0.378906 10.082031 -0.21875 9.96875 -0.09375 C 9.863281 0.0195312 9.710938 0.078125 9.515625 0.078125 C 9.316406 0.078125 9.144531 -0.0078125 9 -0.1875 L 2.546875 -8.8125 L 2.546875 -0.578125 C 2.546875 -0.378906 2.488281 -0.21875 2.375 -0.09375 C 2.269531 0.0195312 2.125 0.078125 1.9375 0.078125 C 1.75 0.078125 1.601562 0.0195312 1.5 -0.09375 C 1.40625 -0.21875 1.359375 -0.378906 1.359375 -0.578125 L 1.359375 -10.390625 C 1.359375 -10.585938 1.410156 -10.742188 1.515625 -10.859375 C 1.617188 -10.972656 1.769531 -11.03125 1.96875 -11.03125 C 2.175781 -11.03125 2.351562 -10.945312 2.5 -10.78125 L 8.9375 -2.140625 L 8.9375 -10.390625 C 8.9375 -10.585938 8.988281 -10.742188 9.09375 -10.859375 C 9.207031 -10.972656 9.359375 -11.03125 9.546875 -11.03125 Z M 9.546875 -11.03125 "/></g></g></g><g fill="#666666" fill-opacity="1"><g transform="translate(211.716874, 259.452581)"><g><path d="M 1.984375 0.078125 C 1.785156 0.078125 1.628906 0.0195312 1.515625 -0.09375 C 1.410156 -0.21875 1.359375 -0.378906 1.359375 -0.578125 L 1.359375 -10.390625 C 1.359375 -10.585938 1.410156 -10.742188 1.515625 -10.859375 C 1.628906 -10.972656 1.785156 -11.03125 1.984375 -11.03125 C 2.179688 -11.03125 2.335938 -10.972656 2.453125 -10.859375 C 2.566406 -10.742188 2.625 -10.585938 2.625 -10.390625 L 2.625 -0.578125 C 2.625 -0.378906 2.566406 -0.21875 2.453125 -0.09375 C 2.335938 0.0195312 2.179688 0.078125 1.984375 0.078125 Z M 1.984375 0.078125 "/></g></g></g><g fill="#666666" fill-opacity="1"><g transform="translate(217.420552, 259.452581)"><g><path d="M 9.546875 -11.03125 C 9.734375 -11.03125 9.878906 -10.972656 9.984375 -10.859375 C 10.085938 -10.742188 10.140625 -10.585938 10.140625 -10.390625 L 10.140625 -0.578125 C 10.140625 -0.378906 10.082031 -0.21875 9.96875 -0.09375 C 9.863281 0.0195312 9.710938 0.078125 9.515625 0.078125 C 9.316406 0.078125 9.144531 -0.0078125 9 -0.1875 L 2.546875 -8.8125 L 2.546875 -0.578125 C 2.546875 -0.378906 2.488281 -0.21875 2.375 -0.09375 C 2.269531 0.0195312 2.125 0.078125 1.9375 0.078125 C 1.75 0.078125 1.601562 0.0195312 1.5 -0.09375 C 1.40625 -0.21875 1.359375 -0.378906 1.359375 -0.578125 L 1.359375 -10.390625 C 1.359375 -10.585938 1.410156 -10.742188 1.515625 -10.859375 C 1.617188 -10.972656 1.769531 -11.03125 1.96875 -11.03125 C 2.175781 -11.03125 2.351562 -10.945312 2.5 -10.78125 L 8.9375 -2.140625 L 8.9375 -10.390625 C 8.9375 -10.585938 8.988281 -10.742188 9.09375 -10.859375 C 9.207031 -10.972656 9.359375 -11.03125 9.546875 -11.03125 Z M 9.546875 -11.03125 "/></g></g></g><g fill="#666666" fill-opacity="1"><g transform="translate(230.629613, 259.452581)"><g><path d="M 9.5 -5.703125 C 9.65625 -5.703125 9.78125 -5.65625 9.875 -5.5625 C 9.976562 -5.46875 10.03125 -5.335938 10.03125 -5.171875 L 10.03125 -1.3125 C 10.03125 -1.0625 9.988281 -0.875 9.90625 -0.75 C 9.832031 -0.625 9.691406 -0.523438 9.484375 -0.453125 C 9.066406 -0.273438 8.5625 -0.132812 7.96875 -0.03125 C 7.382812 0.0703125 6.796875 0.125 6.203125 0.125 C 5.117188 0.125 4.179688 -0.0976562 3.390625 -0.546875 C 2.597656 -0.992188 1.992188 -1.632812 1.578125 -2.46875 C 1.160156 -3.3125 0.953125 -4.316406 0.953125 -5.484375 C 0.953125 -6.640625 1.15625 -7.632812 1.5625 -8.46875 C 1.976562 -9.3125 2.578125 -9.957031 3.359375 -10.40625 C 4.140625 -10.851562 5.050781 -11.078125 6.09375 -11.078125 C 6.820312 -11.078125 7.492188 -10.96875 8.109375 -10.75 C 8.734375 -10.53125 9.257812 -10.210938 9.6875 -9.796875 C 9.863281 -9.617188 9.953125 -9.4375 9.953125 -9.25 C 9.953125 -9.101562 9.910156 -8.972656 9.828125 -8.859375 C 9.742188 -8.753906 9.640625 -8.703125 9.515625 -8.703125 C 9.390625 -8.703125 9.242188 -8.765625 9.078125 -8.890625 C 8.535156 -9.304688 8.046875 -9.59375 7.609375 -9.75 C 7.179688 -9.914062 6.679688 -10 6.109375 -10 C 4.878906 -10 3.929688 -9.609375 3.265625 -8.828125 C 2.609375 -8.054688 2.28125 -6.941406 2.28125 -5.484375 C 2.28125 -4.003906 2.613281 -2.878906 3.28125 -2.109375 C 3.957031 -1.335938 4.941406 -0.953125 6.234375 -0.953125 C 7.203125 -0.953125 8.078125 -1.097656 8.859375 -1.390625 L 8.859375 -4.703125 L 6.59375 -4.703125 C 6.414062 -4.703125 6.273438 -4.75 6.171875 -4.84375 C 6.066406 -4.9375 6.015625 -5.054688 6.015625 -5.203125 C 6.015625 -5.359375 6.066406 -5.476562 6.171875 -5.5625 C 6.273438 -5.65625 6.414062 -5.703125 6.59375 -5.703125 Z M 9.5 -5.703125 "/></g></g></g></svg>